<svg xmlns="http://www.w3.org/2000/svg" enable-background="new 0 0 512 512" viewBox="0 0 512 512" id="cook-hat"><path fill="#c9dafc" d="M411,421v1.4c0,43.41-35.19,78.6-78.6,78.6H179.6c-43.41,0-78.6-35.19-78.6-78.6V421l163.5-12.25
			L411,421z"></path><path fill="#e3effc" d="M500.99,134.69c-0.7-57.61-48.39-104.23-106-103.69c-21.5,0.21-47.43,8.72-63.99,20l-0.11,0.07
			C314.76,26.91,287.24,11,256,11s-58.76,15.91-74.89,40.07L181,51c-16.56-11.28-42.49-19.79-63.99-20
			c-57.61-0.54-105.3,46.08-106,103.69C10.36,188.18,49.7,232.6,101,239.93V421h55.001L173,403.502L196.002,421H236l20-15.667
			L275.998,421h40.003L336,406.667L355.996,421H411V239.93C462.3,232.6,501.64,188.18,500.99,134.69z"></path><path fill="#95c7ee" d="M196 271v150h-40V271c0-11.05 8.95-20 20-20C187.04 251 196 259.96 196 271zM276 271v150h-40V271c0-11.05 8.95-20 20-20C267.04 251 276 259.96 276 271zM356 271v150h-40V271c0-11.05 8.95-20 20-20C347.04 251 356 259.96 356 271z"></path><path d="M510.991,134.57c-0.77-63.212-52.796-114.141-116.093-113.565c-19.747,0.186-43.311,6.754-61.459,16.798
					c-40.171-49.132-114.809-49.008-154.878,0C160.714,27.926,136.828,21,116.007,21C53.26,21,1.773,71.723,1.009,134.57
					C0.343,189.215,38.476,236.628,91,248.268V422.4c0,48.854,39.745,88.6,88.6,88.6H332.4c48.854,0,88.6-39.745,88.6-88.6V248.268
					C473.524,236.628,511.657,189.215,510.991,134.57z M332.4,491H179.6c-34.912,0-63.795-26.221-68.041-60
					c14.503,0,276.484,0,288.884,0C396.195,464.779,367.313,491,332.4,491z M186,411h-20V271c0-5.514,4.486-10,10-10s10,4.486,10,10
					V411z M266,411h-20V271c0-5.514,4.486-10,10-10s10,4.486,10,10V411z M346,411h-20V271c0-5.514,4.486-10,10-10s10,4.486,10,10
					V411z M409.586,230.03c-4.927,0.704-8.586,4.923-8.586,9.899V411h-35V271c0-16.542-13.458-30-30-30s-30,13.458-30,30v140h-20
					V271c0-16.542-13.458-30-30-30s-30,13.458-30,30v140h-20V271c0-16.542-13.458-30-30-30s-30,13.458-30,30v140h-35V239.93
					c0-4.977-3.659-9.195-8.586-9.899c-46.989-6.714-81.986-47.647-81.407-95.216C21.639,82.896,64.168,41,116.01,41
					c16.599,0,36.427,5.539,51.46,13.542C160.151,68.432,156,84.239,156,101c0,5.522,4.478,10,10,10s10-4.478,10-10
					c0-44.112,35.888-80,80-80s80,35.888,80,80c0,5.522,4.478,10,10,10s10-4.478,10-10c0-16.761-4.151-32.569-11.47-46.459
					c15.054-8.015,34.622-13.387,50.556-13.536c52.053-0.504,95.27,41.407,95.907,93.81
					C491.572,182.383,456.575,223.316,409.586,230.03z"></path></svg>